<svg xmlns="http://www.w3.org/2000/svg" xmlns:xlink="http://www.w3.org/1999/xlink" version="1.1" x="0px" y="0px" viewBox="-255 347 100 125" style="enable-background:new -255 347 100 100;" xml:space="preserve"><path d="M-205,363.8c-18.3,0-33.3,14.9-33.3,33.3s14.9,33.3,33.3,33.3s33.3-14.9,33.3-33.3S-186.7,363.8-205,363.8z M-205,429.3  c-17.8,0-32.3-14.5-32.3-32.3s14.5-32.3,32.3-32.3s32.3,14.5,32.3,32.3S-187.2,429.3-205,429.3z M-205,365.8  c-17.3,0-31.3,14-31.3,31.3s14,31.3,31.3,31.3c17.3,0,31.3-14,31.3-31.3S-187.7,365.8-205,365.8z M-190.6,390.1L-207,407  c-0.4,0.4-1,0.7-1.6,0.7c-0.5,0-1.1-0.2-1.5-0.6l-9.2-8.4c-0.9-0.8-1-2.2-0.1-3.1c0.8-0.9,2.2-1,3.1-0.1l7.6,7l14.9-15.3  c0.9-0.9,2.3-0.9,3.1-0.1C-189.8,387.8-189.8,389.2-190.6,390.1z"/><text x="-255" y="462" fill="#000000" font-size="5px" font-weight="bold" font-family="'Helvetica Neue', Helvetica, Arial-Unicode, Arial, Sans-serif">Created by Raindrops</text><text x="-255" y="467" fill="#000000" font-size="5px" font-weight="bold" font-family="'Helvetica Neue', Helvetica, Arial-Unicode, Arial, Sans-serif">from the Noun Project</text></svg>