<svg xmlns="http://www.w3.org/2000/svg" data-name="Layer 1" viewBox="0 0 128 160" x="0px" y="0px"><title>miscellaneous 53 solid</title><path d="M15,8V120a8.01066,8.01066,0,0,0,8,8h82a8.01066,8.01066,0,0,0,8-8V8a8.01062,8.01062,0,0,0-8-8H23A8.01062,8.01062,0,0,0,15,8Zm8,14a2,2,0,0,1,4,0v4a2,2,0,0,1-4,0Zm0,12a2,2,0,0,1,4,0v4a2,2,0,0,1-4,0Zm0,12a2,2,0,0,1,4,0v4a2,2,0,0,1-4,0Zm0,12a2,2,0,0,1,4,0v4a2,2,0,0,1-4,0Zm0,12a2,2,0,0,1,4,0v4a2,2,0,0,1-4,0Zm0,12a2,2,0,0,1,4,0v4a2,2,0,0,1-4,0Zm0,12a2,2,0,0,1,4,0v4a2,2,0,0,1-4,0Zm2,18a2.00591,2.00591,0,0,1-2-2v-4a2,2,0,0,1,4,0v4A2.00591,2.00591,0,0,1,25,112Zm8,8H29a2,2,0,0,1,0-4h4a2,2,0,0,1,0,4Zm12,0H41a2,2,0,0,1,0-4h4a2,2,0,0,1,0,4Zm12,0H53a2,2,0,0,1,0-4h4a2,2,0,0,1,0,4Zm12,0H65a2,2,0,0,1,0-4h4a2,2,0,0,1,0,4Zm12,0H77a2,2,0,0,1,0-4h4a2,2,0,0,1,0,4Zm12,0H89a2,2,0,0,1,0-4h4a2,2,0,0,1,0,4Zm2-14H33.5a2,2,0,0,1,0-4H95a2,2,0,0,1,0,4ZM39.4,46H33.5a2,2,0,0,1,0-4h9.41A31.02948,31.02948,0,0,0,39.4,46ZM64,37.5A26.5,26.5,0,1,1,37.5,64,26.5328,26.5328,0,0,1,64,37.5ZM33.5,62h.07c-.04.66-.07,1.33-.07,2s.03,1.34.07,2H33.5a2,2,0,0,1,0-4Zm0,20h5.9A31.03357,31.03357,0,0,0,42.91,86H33.5a2,2,0,0,1,0-4ZM95,86H85.09A31.03357,31.03357,0,0,0,88.6,82H95a2,2,0,0,1,0,4Zm0-20h-.57c.04-.66.07-1.33.07-2s-.03-1.34-.07-2H95a2,2,0,0,1,0,4Zm0-20H88.6A31.02948,31.02948,0,0,0,85.09,42H95a2,2,0,0,1,0,4Zm10,70a2,2,0,0,1-4,0v-4a2,2,0,0,1,4,0Zm0-12a2,2,0,0,1-4,0v-4a2,2,0,0,1,4,0Zm0-12a2,2,0,0,1-4,0V88a2,2,0,0,1,4,0Zm0-12a2,2,0,0,1-4,0V76a2,2,0,0,1,4,0Zm0-12a2,2,0,0,1-4,0V64a2,2,0,0,1,4,0Zm0-12a2,2,0,0,1-4,0V52a2,2,0,0,1,4,0Zm0-12a2,2,0,0,1-4,0V40a2,2,0,0,1,4,0Zm0-12a2,2,0,0,1-4,0V28a2,2,0,0,1,4,0Zm0-16v4a2,2,0,0,1-4,0V16a2,2,0,0,1,4,0ZM97,8h4a2,2,0,0,1,0,4H97a2,2,0,0,1,0-4ZM85,8h4a2,2,0,0,1,0,4H85a2,2,0,0,1,0-4ZM73,8h4a2,2,0,0,1,0,4H73a2,2,0,0,1,0-4ZM61,8h4a2,2,0,0,1,0,4H61a2,2,0,0,1,0-4ZM49,8h4a2,2,0,0,1,0,4H49a2,2,0,0,1,0-4ZM37,8h4a2,2,0,0,1,0,4H37a2,2,0,0,1,0-4ZM33,22H94.5a2,2,0,0,1,0,4H33a2,2,0,0,1,0-4ZM27,8h2a2,2,0,0,1,0,4H27v2a2,2,0,0,1-4,0V12A3.99887,3.99887,0,0,1,27,8Z"/><path d="M45.57,67.4l9.34,9.5a1.96835,1.96835,0,0,0,1.42.6,2.01286,2.01286,0,0,0,1.27-.45l22.66-18.5a1.99752,1.99752,0,1,0-2.52-3.1L56.48,72.8l-8.05-8.2a2.00122,2.00122,0,0,0-2.86,2.8Z"/><text x="0" y="143" fill="#000000" font-size="5px" font-weight="bold" font-family="'Helvetica Neue', Helvetica, Arial-Unicode, Arial, Sans-serif">Created by WEBTECHOPS LLP</text><text x="0" y="148" fill="#000000" font-size="5px" font-weight="bold" font-family="'Helvetica Neue', Helvetica, Arial-Unicode, Arial, Sans-serif">from the Noun Project</text></svg>