<svg xmlns="http://www.w3.org/2000/svg" data-name="Layer 1" viewBox="0 0 100 125" x="0px" y="0px"><title>128all</title><path d="M91.16,33.73a8.94,8.94,0,0,0-7.64-4.25H65.78V23.67a8,8,0,0,0-8-8H9.33a8,8,0,0,0-8,8V67.2a8,8,0,0,0,8,8h4.12a12.11,12.11,0,0,0,23.47,0H67.14a12.11,12.11,0,0,0,23.47,0h5.06a3,3,0,0,0,3-3V46.67a3,3,0,0,0-.45-1.58Zm-66,44.6a6.13,6.13,0,1,1,6.13-6.12A6.13,6.13,0,0,1,25.18,78.33ZM49.9,35.09l-17,17a3,3,0,0,1-4.12.11l-9.49-8.49a3,3,0,1,1,4-4.47l7.38,6.6,15-15a3,3,0,0,1,4.24,4.24Zm15.88.38H83.51a3,3,0,0,1,2.55,1.42l4.29,6.9H65.78ZM78.87,78.33A6.13,6.13,0,1,1,85,72.2,6.13,6.13,0,0,1,78.87,78.33Zm13.8-9.12H90.61a12.11,12.11,0,0,0-23.47,0H65.78V49.79H92.67Z"/><text x="0" y="115" fill="#000000" font-size="5px" font-weight="bold" font-family="'Helvetica Neue', Helvetica, Arial-Unicode, Arial, Sans-serif">Created by Kamal</text><text x="0" y="120" fill="#000000" font-size="5px" font-weight="bold" font-family="'Helvetica Neue', Helvetica, Arial-Unicode, Arial, Sans-serif">from the Noun Project</text></svg>